<?xml version="1.0" encoding="UTF-8"?>
<!DOCTYPE svg PUBLIC "-//W3C//DTD SVG 1.1//EN" "http://www.w3.org/Graphics/SVG/1.1/DTD/svg11.dtd">
<svg xmlns="http://www.w3.org/2000/svg" version="1.1" width="357px" height="102px" style="shape-rendering:geometricPrecision; text-rendering:geometricPrecision; image-rendering:optimizeQuality; fill-rule:evenodd; clip-rule:evenodd" xmlns:xlink="http://www.w3.org/1999/xlink">
<g><path style="opacity:1" fill="#fefcfd" d="M -0.5,-0.5 C 118.5,-0.5 237.5,-0.5 356.5,-0.5C 356.5,33.5 356.5,67.5 356.5,101.5C 237.5,101.5 118.5,101.5 -0.5,101.5C -0.5,67.5 -0.5,33.5 -0.5,-0.5 Z"/></g>
<g><path style="opacity:1" fill="#ec427b" d="M 3.5,2.5 C 119.5,2.5 235.5,2.5 351.5,2.5C 351.5,34.5 351.5,66.5 351.5,98.5C 235.5,98.5 119.5,98.5 3.5,98.5C 3.5,66.5 3.5,34.5 3.5,2.5 Z"/></g>
<g><path style="opacity:1" fill="#fefefe" d="M 5.5,5.5 C 119.833,5.5 234.167,5.5 348.5,5.5C 348.5,35.5 348.5,65.5 348.5,95.5C 234.167,95.5 119.833,95.5 5.5,95.5C 5.5,65.5 5.5,35.5 5.5,5.5 Z"/></g>
<g><path style="opacity:1" fill="#ec417b" d="M 12.5,11.5 C 67.5,11.5 122.5,11.5 177.5,11.5C 177.5,37.5 177.5,63.5 177.5,89.5C 122.5,89.5 67.5,89.5 12.5,89.5C 12.5,63.5 12.5,37.5 12.5,11.5 Z"/></g>
<g><path style="opacity:1" fill="#fefbfc" d="M 28.5,36.5 C 29.5,36.5 30.5,36.5 31.5,36.5C 31.5,45.1667 31.5,53.8333 31.5,62.5C 30.5,62.5 29.5,62.5 28.5,62.5C 28.5,53.8333 28.5,45.1667 28.5,36.5 Z"/></g>
<g><path style="opacity:1" fill="#feeff3" d="M 46.5,35.5 C 50.4629,35.0889 54.1295,35.9222 57.5,38C 58.8613,39.5843 59.528,41.4176 59.5,43.5C 57.1756,43.3385 55.5089,42.1718 54.5,40C 51.8333,39.3333 49.1667,39.3333 46.5,40C 43.8333,42 43.8333,44 46.5,46C 50.0901,47.5302 53.7568,48.8635 57.5,50C 61.6749,54.3058 61.3416,58.3058 56.5,62C 49.0658,64.3894 43.7325,62.2227 40.5,55.5C 41.6888,54.5713 43.0222,54.238 44.5,54.5C 44.9345,58.1582 47.1012,59.8248 51,59.5C 55.8058,59.5531 57.3058,57.3865 55.5,53C 50.6026,51.5935 46.1026,49.4268 42,46.5C 40.3926,41.4383 41.8926,37.7716 46.5,35.5 Z"/></g>
<g><path style="opacity:1" fill="#fefefe" d="M 69.5,36.5 C 70.5,36.5 71.5,36.5 72.5,36.5C 72.5,40.1667 72.5,43.8333 72.5,47.5C 77.1667,47.5 81.8333,47.5 86.5,47.5C 86.5,43.8333 86.5,40.1667 86.5,36.5C 87.5,36.5 88.5,36.5 89.5,36.5C 89.5,45.1667 89.5,53.8333 89.5,62.5C 88.5,62.5 87.5,62.5 86.5,62.5C 86.5,58.5 86.5,54.5 86.5,50.5C 81.8333,50.5 77.1667,50.5 72.5,50.5C 72.5,54.5 72.5,58.5 72.5,62.5C 71.5,62.5 70.5,62.5 69.5,62.5C 69.5,53.8333 69.5,45.1667 69.5,36.5 Z"/></g>
<g><path style="opacity:1" fill="#fefffe" d="M 100.5,36.5 C 101.5,36.5 102.5,36.5 103.5,36.5C 103.5,45.1667 103.5,53.8333 103.5,62.5C 102.5,62.5 101.5,62.5 100.5,62.5C 100.5,53.8333 100.5,45.1667 100.5,36.5 Z"/></g>
<g><path style="opacity:1" fill="#fef5f8" d="M 114.5,36.5 C 115.5,36.5 116.5,36.5 117.5,36.5C 117.5,40.1667 117.5,43.8333 117.5,47.5C 124.753,48.2574 128.753,44.9241 129.5,37.5C 130.723,36.3861 132.056,36.2195 133.5,37C 131.69,41.4353 129.69,45.7687 127.5,50C 129.574,54.1479 131.907,58.1479 134.5,62C 132.888,62.7203 131.388,62.5536 130,61.5C 127.966,58.2936 126.133,54.9603 124.5,51.5C 122.257,50.5258 119.924,50.1924 117.5,50.5C 117.5,54.5 117.5,58.5 117.5,62.5C 116.5,62.5 115.5,62.5 114.5,62.5C 114.5,53.8333 114.5,45.1667 114.5,36.5 Z"/></g>
<g><path style="opacity:1" fill="#fef5f8" d="M 149.5,36.5 C 150.978,36.238 152.311,36.5713 153.5,37.5C 157.234,45.7098 160.568,54.0431 163.5,62.5C 160.344,62.4709 158.678,60.8043 158.5,57.5C 154.205,56.3391 149.871,56.1725 145.5,57C 144.139,58.5843 143.472,60.4176 143.5,62.5C 142.022,62.762 140.689,62.4287 139.5,61.5C 143.234,53.2902 146.568,44.9569 149.5,36.5 Z"/></g>
<g><path style="opacity:1" fill="#ed497f" d="M 199.5,36.5 C 205.952,36.0845 212.285,36.5845 218.5,38C 222.393,41.5877 222.393,45.2544 218.5,49C 224.176,54.2883 223.509,58.6216 216.5,62C 210.843,62.4994 205.176,62.6661 199.5,62.5C 199.5,53.8333 199.5,45.1667 199.5,36.5 Z"/></g>
<g><path style="opacity:1" fill="#ec467d" d="M 233.5,36.5 C 236.448,36.2229 239.281,36.5562 242,37.5C 245.069,45.5397 248.235,53.5397 251.5,61.5C 248.894,62.6517 246.227,62.8184 243.5,62C 242.663,60.9887 242.33,59.8221 242.5,58.5C 239.482,58.3354 236.482,58.502 233.5,59C 232.833,60 232.167,61 231.5,62C 228.833,62.6667 226.167,62.6667 223.5,62C 227.129,53.6115 230.463,45.1115 233.5,36.5 Z"/></g>
<g><path style="opacity:1" fill="#ed4a7f" d="M 252.5,36.5 C 260.5,36.5 268.5,36.5 276.5,36.5C 276.5,38.8333 276.5,41.1667 276.5,43.5C 273.833,43.5 271.167,43.5 268.5,43.5C 268.5,49.8333 268.5,56.1667 268.5,62.5C 265.833,62.5 263.167,62.5 260.5,62.5C 260.5,56.1667 260.5,49.8333 260.5,43.5C 257.833,43.5 255.167,43.5 252.5,43.5C 252.5,41.1667 252.5,38.8333 252.5,36.5 Z"/></g>
<g><path style="opacity:1" fill="#ed4c80" d="M 279.5,36.5 C 285.176,36.3339 290.843,36.5006 296.5,37C 303.69,41.8187 304.356,47.4854 298.5,54C 299.57,56.8061 300.903,59.4728 302.5,62C 296.756,63.7352 292.922,61.9018 291,56.5C 289.989,55.6634 288.822,55.33 287.5,55.5C 287.5,57.8333 287.5,60.1667 287.5,62.5C 284.833,62.5 282.167,62.5 279.5,62.5C 279.5,53.8333 279.5,45.1667 279.5,36.5 Z"/></g>
<g><path style="opacity:1" fill="#ec467d" d="M 314.5,36.5 C 317.247,36.1866 319.914,36.52 322.5,37.5C 325.74,45.7238 329.073,53.8905 332.5,62C 329.833,62.6667 327.167,62.6667 324.5,62C 323.368,59.0746 321.201,57.9079 318,58.5C 314.673,59.5314 311.506,60.8647 308.5,62.5C 307.167,62.1667 305.833,61.8333 304.5,61.5C 307.841,53.1379 311.174,44.8045 314.5,36.5 Z"/></g>
<g><path style="opacity:1" fill="#f48cae" d="M 212.5,42.5 C 210.833,42.5 209.167,42.5 207.5,42.5C 207.5,43.8333 207.5,45.1667 207.5,46.5C 206.549,45.0813 206.216,43.4147 206.5,41.5C 208.735,41.2053 210.735,41.5386 212.5,42.5 Z"/></g>
<g><path style="opacity:1" fill="#fefdfe" d="M 212.5,42.5 C 213.791,43.5417 213.791,44.7083 212.5,46C 210.866,46.4935 209.199,46.6602 207.5,46.5C 207.5,45.1667 207.5,43.8333 207.5,42.5C 209.167,42.5 210.833,42.5 212.5,42.5 Z"/></g>
<g><path style="opacity:1" fill="#fefafb" d="M 287.5,42.5 C 289.527,42.3379 291.527,42.5045 293.5,43C 294.833,44.6667 294.833,46.3333 293.5,48C 291.527,48.4955 289.527,48.6621 287.5,48.5C 287.5,46.5 287.5,44.5 287.5,42.5 Z"/></g>
<g><path style="opacity:1" fill="#ed4c81" d="M 151.5,41.5 C 153.391,44.9572 155.058,48.6239 156.5,52.5C 153.216,53.657 149.882,53.8236 146.5,53C 148.267,49.1958 149.933,45.3625 151.5,41.5 Z"/></g>
<g><path style="opacity:1" fill="#fde4eb" d="M 237.5,45.5 C 238.67,47.6502 239.67,49.9836 240.5,52.5C 238.5,53.8333 236.5,53.8333 234.5,52.5C 235.702,50.2195 236.702,47.8862 237.5,45.5 Z"/></g>
<g><path style="opacity:1" fill="#fde8ee" d="M 317.5,46.5 C 319.306,48.0894 320.639,50.0894 321.5,52.5C 319.5,53.8333 317.5,53.8333 315.5,52.5C 316.372,50.5504 317.039,48.5504 317.5,46.5 Z"/></g>
<g><path style="opacity:1" fill="#fefbfc" d="M 207.5,52.5 C 209.833,52.5 212.167,52.5 214.5,52.5C 214.67,53.8221 214.337,54.9887 213.5,56C 211.527,56.4955 209.527,56.6621 207.5,56.5C 207.5,55.1667 207.5,53.8333 207.5,52.5 Z"/></g>
</svg>
